PathFileType	4	(X/Y/Z)	C:\Users\italobelli\Desktop\GitHub\PTbot_officialCBL\Personal_Results\SHRUG03_noisy2.trc
DataRate	CameraRate	NumFrames	NumMarkers	Units	OrigDataRate	OrigDataStartFrame	OrigNumFrames
110.888889	110.888889	34	9	m	110.888889	313	500
Frame#	Time		gu		centelbow		EpL		centpxt8		centijc7		ts		aa		ai		ij
			X1	Y1	Z1	X2	Y2	Z2	X3	Y3	Z3	X4	Y4	Z4	X5	Y5	Z5	X6	Y6	Z6	X7	Y7	Z7	X8	Y8	Z8	X9	Y9	Z9

313	2.8136	-0.083443	-0.013507	0.16558	-0.12238	-0.25056	0.19987	-0.10339	-0.24548	0.22542	-0.046816	-0.15316	-0.008669	-0.046816	0.031938	-0.008669	-0.13818	0.029719	0.053444	-0.1099	0.024494	0.16918	-0.15927	-0.081688	0.058687	0	0	0
314	2.8226	-0.083468	-0.013541	0.16552	-0.1222	-0.25067	0.19989	-0.10321	-0.24559	0.22544	-0.046816	-0.15316	-0.008669	-0.046816	0.031938	-0.008669	-0.1382	0.029731	0.053419	-0.10991	0.024484	0.16916	-0.15928	-0.081678	0.058657	0	0	0
315	2.8317	-0.083491	-0.013573	0.16545	-0.12203	-0.25079	0.1999	-0.10303	-0.24571	0.22545	-0.046816	-0.15316	-0.008669	-0.046816	0.031938	-0.008669	-0.13821	0.029744	0.053396	-0.10993	0.024476	0.16914	-0.15929	-0.081667	0.058628	0	0	0
316	2.8407	-0.083513	-0.013603	0.16539	-0.12185	-0.25091	0.19992	-0.10285	-0.24582	0.22545	-0.046816	-0.15316	-0.008669	-0.046816	0.031938	-0.008669	-0.13822	0.029757	0.053373	-0.10994	0.024468	0.16911	-0.1593	-0.081655	0.058601	0	0	0
317	2.8497	-0.083534	-0.013631	0.16533	-0.12169	-0.25103	0.19992	-0.10268	-0.24593	0.22546	-0.046816	-0.15316	-0.008669	-0.046816	0.031938	-0.008669	-0.13823	0.029771	0.053352	-0.10995	0.024462	0.16909	-0.1593	-0.081642	0.058576	0	0	0
318	2.8587	-0.083553	-0.013656	0.16527	-0.12152	-0.25115	0.19992	-0.10251	-0.24605	0.22545	-0.046816	-0.15316	-0.008669	-0.046816	0.031938	-0.008669	-0.13824	0.029786	0.053331	-0.10997	0.024458	0.16907	-0.15931	-0.081628	0.058552	0	0	0
319	2.8677	-0.083571	-0.013679	0.16522	-0.12136	-0.25127	0.19992	-0.10234	-0.24616	0.22544	-0.046816	-0.15316	-0.008669	-0.046816	0.031938	-0.008669	-0.13824	0.029801	0.053312	-0.10998	0.024454	0.16905	-0.15932	-0.081614	0.05853	0	0	0
320	2.8768	-0.083588	-0.0137	0.16516	-0.1212	-0.25139	0.19991	-0.10218	-0.24628	0.22543	-0.046816	-0.15316	-0.008669	-0.046816	0.031938	-0.008669	-0.13825	0.029817	0.053293	-0.10999	0.024453	0.16903	-0.15932	-0.081599	0.05851	0	0	0
321	2.8858	-0.083603	-0.013719	0.16511	-0.12105	-0.25152	0.19989	-0.10203	-0.24641	0.22541	-0.046816	-0.15316	-0.008669	-0.046816	0.031938	-0.008669	-0.13826	0.029834	0.053277	-0.11	0.024452	0.16902	-0.15933	-0.081582	0.058491	0	0	0
322	2.8948	-0.083617	-0.013735	0.16506	-0.1209	-0.25165	0.19987	-0.10187	-0.24653	0.22538	-0.046816	-0.15316	-0.008669	-0.046816	0.031938	-0.008669	-0.13827	0.029851	0.053261	-0.11001	0.024453	0.169	-0.15934	-0.081566	0.058474	0	0	0
323	2.9038	-0.08363	-0.013749	0.16502	-0.12076	-0.25178	0.19984	-0.10173	-0.24666	0.22535	-0.046816	-0.15316	-0.008669	-0.046816	0.031938	-0.008669	-0.13827	0.02987	0.053247	-0.11002	0.024455	0.16899	-0.15935	-0.081548	0.058459	0	0	0
324	2.9128	-0.083641	-0.01376	0.16497	-0.12062	-0.25191	0.1998	-0.10159	-0.24679	0.2253	-0.046816	-0.15316	-0.008669	-0.046816	0.031938	-0.008669	-0.13828	0.029888	0.053234	-0.11003	0.024459	0.16898	-0.15935	-0.081529	0.058445	0	0	0
325	2.9218	-0.083651	-0.013769	0.16494	-0.12049	-0.25205	0.19975	-0.10146	-0.24693	0.22525	-0.046816	-0.15316	-0.008669	-0.046816	0.031938	-0.008669	-0.13828	0.029908	0.053223	-0.11004	0.024465	0.16897	-0.15936	-0.08151	0.058434	0	0	0
326	2.9309	-0.083659	-0.013776	0.1649	-0.12037	-0.25219	0.19969	-0.10133	-0.24707	0.22519	-0.046816	-0.15316	-0.008669	-0.046816	0.031938	-0.008669	-0.13829	0.029928	0.053214	-0.11005	0.024472	0.16896	-0.15937	-0.08149	0.058424	0	0	0
327	2.9399	-0.083666	-0.01378	0.16487	-0.12025	-0.25233	0.19962	-0.10121	-0.24721	0.22512	-0.046816	-0.15316	-0.008669	-0.046816	0.031938	-0.008669	-0.13829	0.029948	0.053207	-0.11006	0.02448	0.16895	-0.15938	-0.081469	0.058416	0	0	0
328	2.9489	-0.083672	-0.013782	0.16484	-0.12014	-0.25248	0.19955	-0.1011	-0.24736	0.22505	-0.046816	-0.15316	-0.008669	-0.046816	0.031938	-0.008669	-0.1383	0.02997	0.053201	-0.11007	0.02449	0.16895	-0.15938	-0.081447	0.058409	0	0	0
329	2.9579	-0.083676	-0.013781	0.16482	-0.12004	-0.25263	0.19946	-0.10099	-0.24752	0.22496	-0.046816	-0.15316	-0.008669	-0.046816	0.031938	-0.008669	-0.1383	0.029992	0.053198	-0.11007	0.024501	0.16894	-0.15939	-0.081425	0.058405	0	0	0
330	2.9669	-0.083678	-0.013777	0.1648	-0.11994	-0.25279	0.19936	-0.1009	-0.24768	0.22486	-0.046816	-0.15316	-0.008669	-0.046816	0.031938	-0.008669	-0.1383	0.030014	0.053196	-0.11008	0.024514	0.16894	-0.1594	-0.081402	0.058402	0	0	0
331	2.976	-0.083679	-0.013771	0.16478	-0.11986	-0.25295	0.19925	-0.10081	-0.24784	0.22475	-0.046816	-0.15316	-0.008669	-0.046816	0.031938	-0.008669	-0.13831	0.030037	0.053197	-0.11009	0.024529	0.16894	-0.15941	-0.081378	0.058401	0	0	0
332	2.985	-0.083679	-0.013762	0.16478	-0.11978	-0.25311	0.19912	-0.10073	-0.24801	0.22463	-0.046816	-0.15316	-0.008669	-0.046816	0.031938	-0.008669	-0.13831	0.030061	0.0532	-0.11009	0.024545	0.16895	-0.15942	-0.081353	0.058402	0	0	0
333	2.994	-0.083677	-0.013751	0.16477	-0.11971	-0.25328	0.19899	-0.10066	-0.24819	0.2245	-0.046816	-0.15316	-0.008669	-0.046816	0.031938	-0.008669	-0.13831	0.030085	0.053205	-0.1101	0.024563	0.16895	-0.15942	-0.081327	0.058405	0	0	0
334	3.003	-0.083674	-0.013737	0.16477	-0.11965	-0.25346	0.19884	-0.1006	-0.24837	0.22435	-0.046816	-0.15316	-0.008669	-0.046816	0.031938	-0.008669	-0.13831	0.03011	0.053213	-0.1101	0.024583	0.16896	-0.15943	-0.081301	0.05841	0	0	0
335	3.012	-0.08367	-0.013722	0.16477	-0.1196	-0.25364	0.19868	-0.10055	-0.24856	0.2242	-0.046816	-0.15316	-0.008669	-0.046816	0.031938	-0.008669	-0.13831	0.030136	0.053221	-0.11011	0.024603	0.16897	-0.15944	-0.081274	0.058415	0	0	0
336	3.021	-0.083666	-0.013707	0.16478	-0.11954	-0.25382	0.19853	-0.10049	-0.24875	0.22404	-0.046816	-0.15316	-0.008669	-0.046816	0.031938	-0.008669	-0.13831	0.030163	0.05323	-0.11011	0.024624	0.16898	-0.15945	-0.081246	0.05842	0	0	0
337	3.0301	-0.083661	-0.013692	0.16478	-0.11949	-0.254	0.19836	-0.10044	-0.24894	0.22388	-0.046816	-0.15316	-0.008669	-0.046816	0.031938	-0.008669	-0.13831	0.03019	0.053238	-0.11012	0.024646	0.16899	-0.15946	-0.081217	0.058426	0	0	0
338	3.0391	-0.083657	-0.013676	0.16479	-0.11945	-0.25418	0.1982	-0.10039	-0.24913	0.22372	-0.046816	-0.15316	-0.008669	-0.046816	0.031938	-0.008669	-0.13831	0.030218	0.053248	-0.11012	0.024669	0.169	-0.15947	-0.081187	0.058432	0	0	0
339	3.0481	-0.083652	-0.013661	0.1648	-0.1194	-0.25437	0.19803	-0.10035	-0.24933	0.22355	-0.046816	-0.15316	-0.008669	-0.046816	0.031938	-0.008669	-0.13831	0.030247	0.053257	-0.11013	0.024692	0.16901	-0.15948	-0.081157	0.058438	0	0	0
340	3.0571	-0.083648	-0.013644	0.16481	-0.11936	-0.25456	0.19785	-0.1003	-0.24953	0.22338	-0.046816	-0.15316	-0.008669	-0.046816	0.031938	-0.008669	-0.13831	0.030276	0.053267	-0.11013	0.024716	0.16902	-0.15949	-0.081126	0.058444	0	0	0
341	3.0661	-0.083643	-0.013628	0.16482	-0.11932	-0.25475	0.19767	-0.10026	-0.24973	0.2232	-0.046816	-0.15316	-0.008669	-0.046816	0.031938	-0.008669	-0.13831	0.030306	0.053277	-0.11014	0.02474	0.16903	-0.1595	-0.081094	0.05845	0	0	0
342	3.0752	-0.083638	-0.013611	0.16484	-0.11928	-0.25494	0.19749	-0.10022	-0.24993	0.22303	-0.046816	-0.15316	-0.008669	-0.046816	0.031938	-0.008669	-0.13832	0.030337	0.053287	-0.11014	0.024765	0.16905	-0.15951	-0.081062	0.058457	0	0	0
343	3.0842	-0.083633	-0.013595	0.16485	-0.11924	-0.25514	0.19731	-0.10018	-0.25013	0.22284	-0.046816	-0.15316	-0.008669	-0.046816	0.031938	-0.008669	-0.13832	0.030368	0.053297	-0.11015	0.02479	0.16906	-0.15952	-0.081029	0.058463	0	0	0
344	3.0932	-0.083627	-0.013578	0.16487	-0.1192	-0.25533	0.19712	-0.10014	-0.25034	0.22266	-0.046816	-0.15316	-0.008669	-0.046816	0.031938	-0.008669	-0.13832	0.030399	0.053308	-0.11015	0.024815	0.16907	-0.15953	-0.080995	0.05847	0	0	0
345	3.1022	-0.083622	-0.01356	0.16488	-0.11917	-0.25553	0.19693	-0.10011	-0.25054	0.22247	-0.046816	-0.15316	-0.008669	-0.046816	0.031938	-0.008669	-0.13832	0.030431	0.053318	-0.11016	0.024841	0.16908	-0.15954	-0.080961	0.058477	0	0	0
346	3.1112	-0.083616	-0.013543	0.1649	-0.11914	-0.25572	0.19674	-0.10007	-0.25075	0.22228	-0.046816	-0.15316	-0.008669	-0.046816	0.031938	-0.008669	-0.13832	0.030464	0.053329	-0.11016	0.024867	0.16909	-0.15956	-0.080927	0.058484	0	0	0
